<svg width="150" height="150" viewBox="0 0 120 120" fill="none" xmlns="http://www.w3.org/2000/svg">
<circle cx="60" cy="60" r="60" fill="#1C1C1C"/>
<circle cx="60" cy="60" r="57.5" stroke="#F1F1F1" stroke-width="1.4"/>
<path d="M25.5 89.0346H94.5V94.1C94.5 94.3209 94.3209 94.5 94.1 94.5H25.9C25.6791 94.5 25.5 94.3209 25.5 94.1V89.0346Z" fill="#F1F1F1"/>
<path d="M76.5388 84.594L54.2827 65.4653H72.2438L94.4999 84.594H76.5388Z" fill="#717171"/>
<path d="M81.8828 65.4653V54.5346H94.5C94.5 60 88.1914 65.4653 81.8828 65.4653Z" fill="#717171"/>
<path d="M43.2429 54.9346C43.2429 54.7137 43.422 54.5346 43.6429 54.5346H81.8829V65.4653H43.6429C43.422 65.4653 43.2429 65.2862 43.2429 65.0653V54.9346Z" fill="#717171"/>
<path d="M43.2429 54.9346C43.2429 54.7137 43.422 54.5346 43.6429 54.5346H71.2372V60H43.2429V54.9346Z" fill="#F1F1F1"/>
<path d="M71.2371 54.5346V60C75.373 60 79.5089 57.6716 81.8828 54.5346H71.2371Z" fill="#F1F1F1"/>
<path d="M81.8826 38.4422C81.8826 37.4364 80.6997 36.4307 79.5169 36.4307H92.134H94.4997V45.4284V52.5231V54.5346H81.8826L81.8826 52.5231L81.8826 51.5173L81.8826 45.4827V38.4422Z" fill="#717171"/>
<path d="M94.5 36.4307H81.8829V25.5C88.1914 25.5 94.5 30.9653 94.5 36.4307Z" fill="#717171"/>
<rect x="38.1172" y="30.9653" width="43.7657" height="5.46535" fill="#717171"/>
<rect x="31.8086" y="30.9653" width="6.30857" height="58.0693" fill="#F1F1F1"/>
<path d="M81.8829 30.9653V25.5C86.0188 25.5 90.1546 27.8283 92.5286 30.9653H81.8829Z" fill="#F1F1F1"/>
<rect x="31.8086" y="25.5" width="50.0743" height="5.46535" fill="#F1F1F1"/>
<path d="M25.5 25.9C25.5 25.6791 25.6791 25.5 25.9 25.5H31.8086V94.5H25.9C25.6791 94.5 25.5 94.3209 25.5 94.1V25.9Z" fill="#717171"/>
</svg>
